<?xml version="1.0" encoding="UTF-8"?>
<!DOCTYPE svg PUBLIC "-//W3C//DTD SVG 1.1//EN" "http://www.w3.org/Graphics/SVG/1.1/DTD/svg11.dtd">
<!-- Creator: CorelDRAW X6 -->
<svg xmlns="http://www.w3.org/2000/svg" xml:space="preserve" width="11.1111in" height="14.7649in" version="1.1" style="shape-rendering:geometricPrecision; text-rendering:geometricPrecision; image-rendering:optimizeQuality; fill-rule:evenodd; clip-rule:evenodd"
viewBox="0 0 11111 14765"
 xmlns:xlink="http://www.w3.org/1999/xlink">
 <defs>
  <style type="text/css">
   <![CDATA[
    .fil4 {fill:#373435;fill-rule:nonzero}
    .fil2 {fill:#2F2E2E;fill-rule:nonzero}
    .fil5 {fill:#373535;fill-rule:nonzero}
    .fil12 {fill:#393669;fill-rule:nonzero}
    .fil0 {fill:#3A3A3A;fill-rule:nonzero}
    .fil13 {fill:#C0333D;fill-rule:nonzero}
    .fil6 {fill:#C59D72;fill-rule:nonzero}
    .fil3 {fill:#E7E8E8;fill-rule:nonzero}
    .fil1 {fill:#F1F2F2;fill-rule:nonzero}
    .fil14 {fill:#FEFEFE;fill-rule:nonzero}
    .fil8 {fill:url(#id0);fill-rule:nonzero}
    .fil7 {fill:url(#id1);fill-rule:nonzero}
    .fil9 {fill:url(#id2);fill-rule:nonzero}
    .fil10 {fill:url(#id3);fill-rule:nonzero}
    .fil11 {fill:url(#id4);fill-rule:nonzero}
   ]]>
  </style>
  <linearGradient id="id0" gradientUnits="userSpaceOnUse" x1="1409.57" y1="10538.5" x2="2794.82" y2="10538.5">
   <stop offset="0" style="stop-color:#DFC492"/>
   <stop offset="1" style="stop-color:#B59664"/>
  </linearGradient>
  <linearGradient id="id1" gradientUnits="userSpaceOnUse" xlink:href="#id0" x1="1625.02" y1="9804.41" x2="3004.99" y2="9804.41">
  </linearGradient>
  <linearGradient id="id2" gradientUnits="userSpaceOnUse" xlink:href="#id0" x1="1746.02" y1="10922.1" x2="3091.75" y2="10922.1">
  </linearGradient>
  <linearGradient id="id3" gradientUnits="userSpaceOnUse" xlink:href="#id0" x1="2234.96" y1="10965.4" x2="3849.26" y2="10965.4">
  </linearGradient>
  <linearGradient id="id4" gradientUnits="userSpaceOnUse" xlink:href="#id0" x1="2512.83" y1="10108.6" x2="3917.89" y2="10108.6">
  </linearGradient>
 </defs>
 <g id="background">
  <metadata id="CorelCorpID_0Corel-Layer"/>
  <polygon class="fil0" points="11113,14774 5558,14774 5558,11080 11113,11080 "/>
  <polygon class="fil1" points="11111,7389 0,7389 0,0 11111,0 "/>
  <polygon class="fil2" points="5556,14774 0,14774 0,7385 5556,7385 "/>
  <polygon class="fil3" points="11113,11080 5558,11080 5558,7385 11113,7385 "/>
 </g>
 <g id="__x0023_Layer_x0020_2">
  <metadata id="CorelCorpID_1Corel-Layer"/>
  <g id="_178826960">
   <polygon class="fil4" points="3662,5468 3662,4986 3992,4986 3992,5077 3772,5077 3772,5172 3967,5172 3967,5261 3772,5261 3772,5377 4008,5377 4008,5468 "/>
   <path class="fil4" d="M4833 5468c-5,-17 -11,-34 -18,-52 -6,-18 -12,-35 -19,-53l-191 0c-6,18 -12,35 -19,53 -6,18 -12,35 -17,51l-114 0c18,-52 36,-100 52,-144 17,-44 33,-85 48,-124 16,-39 31,-76 47,-111 15,-35 31,-69 48,-102l104 0c16,33 32,68 47,102 16,35 31,72 47,111 16,39 32,80 48,124 17,44 34,92 52,144l-118 0zm-132 -372l0 0c-2,7 -6,17 -11,29 -5,12 -10,26 -16,42 -6,16 -13,33 -20,52 -7,19 -15,39 -23,60l140 0c-7,-21 -15,-41 -22,-60 -7,-19 -14,-36 -20,-52 -6,-16 -12,-30 -17,-42 -5,-12 -9,-21 -12,-28z"/>
   <path class="fil4" d="M5650 5069c-51,0 -88,14 -111,42 -23,28 -34,66 -34,115 0,24 3,45 8,64 6,19 14,36 25,50 11,14 25,25 42,32 17,8 37,11 59,11 12,0 23,0 31,-1 9,0 16,-1 23,-3l0 -167 110 0 0 238c-13,5 -34,11 -63,16 -29,6 -65,9 -108,9 -37,0 -70,-6 -100,-17 -30,-11 -55,-27 -76,-49 -21,-21 -37,-47 -49,-79 -12,-31 -17,-66 -17,-106 0,-40 6,-76 19,-107 13,-31 30,-57 52,-79 22,-22 48,-38 78,-49 30,-11 62,-17 95,-17 23,0 44,2 62,5 19,3 35,6 48,10 13,4 24,8 33,12 9,4 15,7 19,10l-32 87c-15,-8 -32,-15 -52,-21 -20,-6 -41,-9 -64,-9z"/>
   <polygon class="fil4" points="6648,5374 6648,5468 6322,5468 6322,4986 6432,4986 6432,5374 "/>
   <polygon class="fil4" points="7134,5468 7134,4986 7464,4986 7464,5077 7244,5077 7244,5172 7439,5172 7439,5261 7244,5261 7244,5377 7480,5377 7480,5468 "/>
  </g>
  <g id="_178827776">
   <path class="fil5" d="M4650 5838c0,14 -4,26 -11,36 -5,7 -12,12 -21,14 -5,2 -11,2 -17,2 -12,0 -22,-3 -30,-9 -7,-5 -12,-11 -16,-20 -4,-8 -6,-18 -7,-29l30 -2c1,12 4,20 10,26 4,4 8,6 13,6 7,0 12,-4 16,-10 2,-3 3,-8 3,-13 0,-8 -4,-17 -12,-25 -6,-6 -15,-14 -28,-26 -10,-10 -18,-19 -22,-26 -5,-9 -7,-18 -7,-28 0,-18 6,-32 19,-42 8,-6 17,-9 29,-9 11,0 20,2 28,7 6,4 11,9 15,16 4,7 6,15 7,23l-30 5c-1,-8 -3,-15 -7,-19 -3,-3 -7,-5 -12,-5 -6,0 -10,2 -13,7 -2,4 -4,9 -4,15 0,9 4,19 12,28 3,4 8,8 14,13 7,6 12,10 14,12 8,8 14,15 18,22 2,3 4,7 5,10 3,7 4,14 5,19z"/>
   <polygon class="fil5" points="4903,5716 4870,5716 4870,5685 4967,5685 4967,5716 4934,5716 4934,5888 4903,5888 "/>
   <path class="fil5" d="M5236 5890c-14,0 -25,-5 -35,-14 -10,-9 -14,-21 -14,-34l0 -157 30 0 0 156c0,5 2,9 5,12 3,3 8,5 13,5 5,0 9,-2 13,-5 3,-3 5,-8 5,-12l0 -156 32 0 0 157c0,14 -5,25 -14,34 -10,9 -21,14 -35,14z"/>
   <path class="fil5" d="M5603 5839c0,13 -5,25 -14,34 -10,9 -21,14 -34,14l-49 0 0 -203 49 0c14,0 25,5 35,14 9,9 14,21 14,34l0 106zm-66 18l0 0 19 0c5,0 9,-2 12,-5 3,-4 5,-8 5,-12l0 -106c0,-5 -2,-9 -5,-12 -3,-3 -8,-5 -12,-5l-19 0 0 141z"/>
   <polygon class="fil5" points="5855,5888 5824,5888 5824,5685 5855,5685 "/>
   <path class="fil5" d="M6124 5683c14,0 25,5 35,14 10,9 14,21 14,34l0 111c0,13 -5,25 -14,34 -10,9 -21,14 -35,14 -14,0 -25,-5 -35,-14 -10,-9 -14,-21 -14,-34l0 -111c0,-13 5,-25 14,-34 10,-9 21,-14 35,-14zm17 48l0 0c0,-5 -2,-9 -5,-12 -3,-3 -8,-5 -13,-5 -5,0 -9,2 -13,5 -4,3 -5,8 -5,12l0 111c0,5 2,9 5,12 4,3 8,5 13,5 5,0 9,-2 13,-5 3,-3 5,-8 5,-12l0 -111z"/>
   <path class="fil5" d="M6496 5838c0,14 -3,26 -11,36 -5,7 -12,12 -21,14 -5,2 -11,2 -17,2 -12,0 -22,-3 -30,-9 -7,-5 -12,-11 -16,-20 -4,-8 -6,-18 -7,-29l30 -2c1,12 4,20 10,26 4,4 8,6 13,6 7,0 12,-4 16,-10 2,-3 3,-8 3,-13 0,-8 -4,-17 -12,-25 -6,-6 -15,-14 -28,-26 -10,-10 -18,-19 -22,-26 -5,-9 -7,-18 -7,-28 0,-18 6,-32 19,-42 8,-6 17,-9 29,-9 11,0 20,2 28,7 6,4 11,9 15,16 4,7 6,15 7,23l-30 5c-1,-8 -3,-15 -7,-19 -3,-3 -7,-5 -12,-5 -6,0 -10,2 -13,7 -2,4 -4,9 -4,15 0,9 4,19 12,28 3,4 8,8 14,13 7,6 12,10 14,12 8,8 14,15 18,22 2,3 4,7 5,10 3,7 4,14 5,19z"/>
  </g>
  <path class="fil4" d="M5969 2169c0,0 -1158,-279 -1764,346 0,0 258,-649 1005,-664 0,0 404,-1 758,318z"/>
  <path class="fil4" d="M4840 2724c276,-317 574,-395 861,-502 -246,-16 -1077,47 -1405,528 -365,536 -36,1083 180,1285 -73,-408 9,-904 365,-1312z"/>
  <path class="fil4" d="M5480 2488c0,0 -1120,361 -722,1750 0,0 558,497 1321,250 0,0 -1044,-180 -1051,-1041 0,0 -28,-546 451,-959z"/>
  <path class="fil4" d="M5316 3044c0,0 -331,632 248,1015 0,0 281,229 857,226 0,0 420,-192 627,-919 0,0 -405,729 -1245,459 -116,-37 -579,-264 -487,-781z"/>
  <path class="fil4" d="M6652 2305c-543,-728 -1312,-558 -1312,-558 666,87 935,502 977,599 -94,35 -163,124 -176,232 -757,339 -481,988 -481,988 -38,-105 64,-623 736,-725 588,-89 740,203 740,203 -33,-556 -497,-732 -484,-739z"/>
  <g id="_178829456">
   <polygon class="fil6" points="1189,12375 1189,11998 1447,11998 1447,12069 1275,12069 1275,12143 1428,12143 1428,12213 1275,12213 1275,12304 1460,12304 1460,12375 "/>
   <path class="fil6" d="M2105 12375c-4,-13 -9,-27 -14,-40 -5,-14 -10,-28 -15,-41l-149 0c-5,14 -10,28 -15,41 -5,14 -9,27 -14,40l-89 0c14,-41 28,-78 41,-113 13,-34 26,-67 38,-97 12,-30 25,-59 37,-87 12,-27 24,-54 37,-80l82 0c13,26 25,53 37,80 12,27 24,56 37,87 12,30 25,63 38,97 13,34 27,72 41,113l-92 0zm-103 -291l0 0c-2,5 -5,13 -8,22 -4,9 -8,20 -13,33 -5,12 -10,26 -16,41 -6,15 -12,30 -18,47l109 0c-6,-16 -12,-32 -17,-47 -5,-15 -11,-28 -16,-41 -5,-12 -9,-23 -13,-33 -4,-9 -7,-17 -9,-22z"/>
   <path class="fil6" d="M2744 12063c-40,0 -69,11 -87,33 -18,22 -27,52 -27,90 0,18 2,35 7,50 4,15 11,28 20,39 9,11 20,19 33,25 13,6 29,9 46,9 10,0 18,0 25,-1 7,0 13,-1 18,-2l0 -131 86 0 0 186c-10,4 -27,8 -50,13 -23,5 -51,7 -84,7 -29,0 -55,-4 -78,-13 -23,-9 -43,-21 -60,-38 -17,-17 -29,-37 -38,-61 -9,-24 -14,-52 -14,-83 0,-32 5,-59 15,-84 10,-24 24,-45 41,-62 17,-17 38,-30 61,-38 23,-9 48,-13 75,-13 18,0 34,1 49,4 15,2 27,5 37,8 10,3 19,6 26,10 7,3 12,6 15,8l-25 68c-12,-6 -25,-12 -41,-16 -15,-5 -32,-7 -50,-7z"/>
   <polygon class="fil6" points="3526,12302 3526,12375 3270,12375 3270,11998 3356,11998 3356,12302 "/>
   <polygon class="fil6" points="3906,12375 3906,11998 4164,11998 4164,12069 3992,12069 3992,12143 4145,12143 4145,12213 3992,12213 3992,12304 4177,12304 4177,12375 "/>
  </g>
  <g id="_178829696">
   <path class="fil6" d="M1962 12664c0,11 -3,20 -9,28 -4,5 -9,9 -17,11 -4,1 -8,2 -13,2 -9,0 -17,-2 -24,-7 -5,-4 -9,-9 -12,-15 -3,-7 -5,-14 -5,-22l23 -2c1,9 4,16 7,20 3,3 6,5 10,4 5,0 10,-3 13,-8 2,-2 2,-6 2,-11 0,-7 -3,-13 -9,-20 -5,-4 -12,-11 -22,-20 -8,-8 -14,-15 -17,-21 -4,-7 -5,-14 -5,-22 0,-14 5,-25 15,-33 6,-4 14,-7 23,-7 9,0 16,2 22,6 5,3 9,7 12,12 3,5 5,11 5,18l-23 4c-1,-6 -3,-12 -6,-15 -2,-3 -5,-4 -10,-4 -4,0 -8,2 -10,6 -2,3 -3,7 -3,12 0,7 3,15 9,22 2,3 6,6 11,10 6,5 9,8 11,10 6,6 11,12 14,17 2,3 3,5 4,7 2,6 4,11 4,15z"/>
   <polygon class="fil6" points="2160,12569 2135,12569 2135,12545 2210,12545 2210,12569 2185,12569 2185,12704 2160,12704 "/>
   <path class="fil6" d="M2421 12706c-11,0 -20,-4 -27,-11 -7,-7 -11,-16 -11,-27l0 -123 24 0 0 122c0,4 1,7 4,10 3,3 6,4 10,4 4,0 7,-1 10,-4 3,-3 4,-6 4,-10l0 -122 25 0 0 123c0,11 -4,20 -11,27 -8,7 -17,11 -27,11z"/>
   <path class="fil6" d="M2708 12666c0,10 -4,19 -11,27 -7,7 -16,11 -27,11l-38 0 0 -159 38 0c11,0 20,4 27,11 7,7 11,16 11,27l0 83zm-52 14l0 0 15 0c4,0 7,-1 10,-4 3,-3 4,-6 4,-10l0 -83c0,-4 -1,-7 -4,-10 -3,-3 -6,-4 -10,-4l-15 0 0 111z"/>
   <polygon class="fil6" points="2905,12704 2881,12704 2881,12545 2905,12545 "/>
   <path class="fil6" d="M3116 12543c11,0 20,4 27,11 7,7 11,16 11,27l0 87c0,11 -4,20 -11,27 -8,7 -17,11 -27,11 -11,0 -20,-4 -27,-11 -7,-7 -11,-16 -11,-27l0 -87c0,-11 4,-20 11,-27 8,-7 17,-11 27,-11zm13 37l0 0c0,-4 -1,-7 -4,-10 -3,-3 -6,-4 -10,-4 -4,0 -7,1 -10,4 -3,3 -4,6 -4,10l0 87c0,4 1,7 4,10 3,3 6,4 10,4 4,0 7,-1 10,-4 3,-3 4,-6 4,-10l0 -87z"/>
   <path class="fil6" d="M3407 12664c0,11 -3,20 -9,28 -4,5 -9,9 -17,11 -4,1 -8,2 -13,2 -9,0 -17,-2 -24,-7 -5,-4 -9,-9 -12,-15 -3,-7 -5,-14 -5,-22l23 -2c1,9 4,16 7,20 3,3 6,5 10,4 5,0 10,-3 13,-8 2,-2 2,-6 2,-11 0,-7 -3,-13 -9,-20 -5,-4 -12,-11 -22,-20 -8,-8 -14,-15 -17,-21 -4,-7 -5,-14 -5,-22 0,-14 5,-25 15,-33 6,-4 14,-7 23,-7 9,0 16,2 22,6 5,3 9,7 12,12 3,5 5,11 5,18l-23 4c-1,-6 -3,-12 -6,-15 -2,-3 -5,-4 -10,-4 -4,0 -8,2 -10,6 -2,3 -3,7 -3,12 0,7 3,15 9,22 2,3 6,6 11,10 6,5 9,8 11,10 6,6 11,12 14,17 2,3 3,5 4,7 2,6 4,11 4,15z"/>
  </g>
  <path class="fil7" d="M3005 9794c0,0 -906,-218 -1380,271 0,0 202,-508 787,-519 0,0 316,-1 593,249z"/>
  <path class="fil8" d="M2121 10228c216,-248 449,-309 673,-392 -192,-12 -843,37 -1100,413 -286,419 -28,847 141,1006 -57,-319 7,-707 286,-1026z"/>
  <path class="fil9" d="M2622 10043c0,0 -876,282 -565,1369 0,0 436,389 1034,196 0,0 -817,-141 -822,-814 0,0 -22,-427 353,-750z"/>
  <path class="fil10" d="M2494 10479c0,0 -259,494 194,794 0,0 220,179 671,177 0,0 329,-150 490,-719 0,0 -317,571 -974,359 -90,-29 -453,-207 -381,-611z"/>
  <path class="fil11" d="M3539 9900c-425,-570 -1026,-437 -1026,-437 521,68 732,393 764,469 -73,28 -128,97 -138,182 -592,266 -376,773 -376,773 -29,-82 50,-487 576,-567 460,-70 579,159 579,159 -26,-435 -389,-573 -379,-578z"/>
  <g id="_178831280">
   <polygon class="fil12" points="7063,10176 7063,9903 7250,9903 7250,9955 7125,9955 7125,10008 7236,10008 7236,10059 7125,10059 7125,10125 7259,10125 7259,10176 "/>
   <path class="fil12" d="M7727 10176c-3,-9 -6,-19 -10,-29 -4,-10 -7,-20 -11,-30l-108 0c-4,10 -7,20 -11,30 -4,10 -7,20 -10,29l-65 0c10,-29 20,-57 30,-82 9,-25 19,-49 27,-71 9,-22 18,-43 27,-63 9,-20 18,-39 27,-58l59 0c9,19 18,38 27,58 9,20 18,41 27,63 9,22 18,46 28,71 9,25 19,52 30,82l-67 0zm-75 -211l0 0c-1,4 -3,9 -6,16 -3,7 -6,15 -9,24 -3,9 -7,19 -11,30 -4,11 -9,22 -13,34l79 0c-4,-12 -8,-23 -12,-34 -4,-11 -8,-21 -11,-30 -4,-9 -7,-17 -9,-24 -3,-7 -5,-12 -7,-16z"/>
   <path class="fil12" d="M8191 9950c-29,0 -50,8 -63,24 -13,16 -19,38 -19,65 0,13 2,26 5,37 3,11 8,20 14,28 6,8 14,14 24,18 10,4 21,7 34,7 7,0 13,0 18,0 5,0 9,-1 13,-2l0 -95 62 0 0 135c-7,3 -19,6 -36,9 -17,3 -37,5 -61,5 -21,0 -40,-3 -57,-9 -17,-6 -31,-16 -43,-28 -12,-12 -21,-27 -28,-45 -7,-18 -10,-38 -10,-60 0,-23 4,-43 11,-61 7,-18 17,-33 30,-45 13,-12 27,-21 44,-28 17,-6 35,-9 54,-9 13,0 25,1 35,3 11,2 20,4 27,6 8,2 14,5 19,7 5,2 8,4 11,6l-18 49c-9,-4 -18,-8 -29,-12 -11,-3 -23,-5 -36,-5z"/>
   <polygon class="fil12" points="8758,10123 8758,10176 8573,10176 8573,9903 8635,9903 8635,10123 "/>
   <polygon class="fil12" points="9034,10176 9034,9903 9222,9903 9222,9955 9097,9955 9097,10008 9208,10008 9208,10059 9097,10059 9097,10125 9231,10125 9231,10176 "/>
  </g>
  <g id="_178831424">
   <path class="fil13" d="M7623 10386c0,8 -2,15 -6,21 -3,4 -7,7 -12,8 -3,1 -6,1 -10,1 -7,0 -13,-2 -17,-5 -4,-3 -7,-7 -9,-11 -2,-5 -3,-10 -4,-16l17 -1c1,7 3,12 5,15 2,2 5,3 7,3 4,0 7,-2 9,-6 1,-2 2,-4 2,-8 0,-5 -2,-10 -7,-14 -3,-3 -9,-8 -16,-15 -6,-6 -10,-11 -12,-15 -3,-5 -4,-10 -4,-16 0,-10 4,-18 11,-24 4,-3 10,-5 16,-5 6,0 12,1 16,4 3,2 6,5 8,9 2,4 3,8 4,13l-17 3c-1,-5 -2,-8 -4,-11 -2,-2 -4,-3 -7,-3 -3,0 -6,1 -7,4 -1,2 -2,5 -2,8 0,5 2,11 7,16 2,2 4,5 8,7 4,3 7,6 8,7 4,4 8,9 10,13 1,2 2,4 3,5 2,4 3,8 3,11z"/>
   <polygon class="fil13" points="7767,10318 7749,10318 7749,10300 7804,10300 7804,10318 7785,10318 7785,10415 7767,10415 "/>
   <path class="fil13" d="M7957 10416c-8,0 -14,-3 -20,-8 -5,-5 -8,-12 -8,-19l0 -89 17 0 0 89c0,3 1,5 3,7 2,2 4,3 7,3 3,0 5,-1 7,-3 2,-2 3,-4 3,-7l0 -89 18 0 0 89c0,8 -3,14 -8,19 -5,5 -12,8 -20,8z"/>
   <path class="fil13" d="M8165 10388c0,8 -3,14 -8,19 -5,5 -12,8 -20,8l-28 0 0 -115 28 0c8,0 14,3 20,8 5,5 8,12 8,19l0 60zm-38 10l0 0 11 0c3,0 5,-1 7,-3 2,-2 3,-4 3,-7l0 -60c0,-3 -1,-5 -3,-7 -2,-2 -4,-3 -7,-3l-11 0 0 80z"/>
   <polygon class="fil13" points="8308,10415 8290,10415 8290,10300 8308,10300 "/>
   <path class="fil13" d="M8461 10299c8,0 14,3 20,8 5,5 8,12 8,19l0 63c0,8 -3,14 -8,20 -5,5 -12,8 -20,8 -8,0 -14,-3 -20,-8 -5,-5 -8,-12 -8,-19l0 -63c0,-8 3,-14 8,-20 5,-5 12,-8 20,-8zm10 27l0 0c0,-3 -1,-5 -3,-7 -2,-2 -4,-3 -7,-3 -3,0 -5,1 -7,3 -2,2 -3,4 -3,7l0 63c0,3 1,5 3,7 2,2 4,3 7,3 3,0 5,-1 7,-3 2,-2 3,-4 3,-7l0 -63z"/>
   <path class="fil13" d="M8672 10386c0,8 -2,15 -6,21 -3,4 -7,7 -12,8 -3,1 -6,1 -10,1 -7,0 -13,-2 -17,-5 -4,-3 -7,-7 -9,-11 -2,-5 -3,-10 -4,-16l17 -1c1,7 3,12 5,15 2,2 5,3 7,3 4,0 7,-2 9,-6 1,-2 2,-4 2,-8 0,-5 -2,-10 -7,-14 -3,-3 -9,-8 -16,-15 -6,-6 -10,-11 -12,-15 -3,-5 -4,-10 -4,-16 0,-10 4,-18 11,-24 4,-3 10,-5 16,-5 6,0 12,1 16,4 3,2 6,5 8,9 2,4 3,8 4,13l-17 3c-1,-5 -2,-8 -4,-11 -2,-2 -4,-3 -7,-3 -3,0 -6,1 -7,4 -1,2 -2,5 -2,8 0,5 2,11 7,16 2,2 4,5 8,7 4,3 7,6 8,7 4,4 8,9 10,13 1,2 2,4 3,5 2,4 3,8 3,11z"/>
  </g>
  <path class="fil13" d="M8380 8303c0,0 -658,-158 -1002,196 0,0 147,-369 571,-377 0,0 229,-1 431,181z"/>
  <path class="fil12" d="M7739 8618c157,-180 326,-225 489,-285 -140,-9 -612,27 -798,300 -207,304 -21,615 102,730 -41,-232 5,-513 207,-745z"/>
  <path class="fil13" d="M8103 8484c0,0 -636,205 -410,994 0,0 317,282 750,142 0,0 -593,-102 -597,-591 0,0 -16,-310 256,-544z"/>
  <path class="fil12" d="M8010 8800c0,0 -188,359 141,576 0,0 159,130 487,128 0,0 238,-109 356,-522 0,0 -230,414 -707,261 -66,-21 -329,-150 -276,-443z"/>
  <path class="fil12" d="M8768 8380c-308,-414 -745,-317 -745,-317 378,49 531,285 555,340 -53,20 -93,71 -100,132 -430,193 -273,561 -273,561 -21,-60 36,-354 418,-412 334,-51 420,115 420,115 -19,-315 -282,-416 -275,-420z"/>
  <g id="_178800440">
   <polygon class="fil14" points="6982,13869 6982,13596 7169,13596 7169,13647 7044,13647 7044,13701 7155,13701 7155,13751 7044,13751 7044,13817 7178,13817 7178,13869 "/>
   <path class="fil14" d="M7647 13869c-3,-9 -6,-19 -10,-29 -4,-10 -7,-20 -11,-30l-108 0c-4,10 -7,20 -11,30 -4,10 -7,20 -10,29l-65 0c10,-29 20,-57 30,-82 9,-25 19,-49 27,-71 9,-22 18,-43 27,-63 9,-20 18,-39 27,-58l59 0c9,19 18,38 27,58 9,20 18,41 27,63 9,22 18,46 28,71 9,25 19,52 30,82l-67 0zm-75 -211l0 0c-1,4 -3,9 -6,16 -3,7 -6,15 -9,24 -3,9 -7,19 -11,30 -4,11 -9,22 -13,34l79 0c-4,-12 -8,-23 -12,-34 -4,-11 -8,-21 -11,-30 -4,-9 -7,-17 -9,-24 -3,-7 -5,-12 -7,-16z"/>
   <path class="fil14" d="M8110 13643c-29,0 -50,8 -63,24 -13,16 -19,38 -19,65 0,13 2,26 5,37 3,11 8,20 14,28 6,8 14,14 24,18 10,4 21,7 34,7 7,0 13,0 18,0 5,0 9,-1 13,-2l0 -95 62 0 0 135c-7,3 -19,6 -36,9 -17,3 -37,5 -61,5 -21,0 -40,-3 -57,-9 -17,-6 -31,-16 -43,-28 -12,-12 -21,-27 -28,-45 -7,-18 -10,-38 -10,-60 0,-23 4,-43 11,-61 7,-18 17,-33 30,-45 13,-12 27,-21 44,-28 17,-6 35,-9 54,-9 13,0 25,1 35,3 11,2 20,4 27,6 8,2 14,5 19,7 5,2 8,4 11,6l-18 49c-9,-4 -18,-8 -29,-12 -11,-3 -23,-5 -36,-5z"/>
   <polygon class="fil14" points="8678,13816 8678,13869 8492,13869 8492,13596 8555,13596 8555,13816 "/>
   <polygon class="fil14" points="8954,13869 8954,13596 9141,13596 9141,13647 9016,13647 9016,13701 9127,13701 9127,13751 9016,13751 9016,13817 9150,13817 9150,13869 "/>
  </g>
  <g id="_178800992">
   <path class="fil14" d="M7543 14079c0,8 -2,15 -6,21 -3,4 -7,7 -12,8 -3,1 -6,1 -10,1 -7,0 -13,-2 -17,-5 -4,-3 -7,-6 -9,-11 -2,-5 -3,-10 -4,-16l17 -1c1,7 3,12 5,15 2,2 5,3 7,3 4,0 7,-2 9,-6 1,-2 2,-4 2,-8 0,-5 -2,-10 -7,-14 -3,-3 -9,-8 -16,-15 -6,-6 -10,-11 -12,-15 -3,-5 -4,-10 -4,-16 0,-10 4,-18 11,-24 4,-3 10,-5 16,-5 6,0 12,1 16,4 3,2 6,5 8,9 2,4 3,8 4,13l-17 3c-1,-5 -2,-8 -4,-11 -2,-2 -4,-3 -7,-3 -3,0 -6,1 -7,4 -1,2 -2,5 -2,8 0,5 2,11 7,16 2,2 4,5 8,7 4,3 7,6 8,7 4,4 8,9 10,13 1,2 2,4 3,5 2,4 3,8 3,11z"/>
   <polygon class="fil14" points="7687,14010 7668,14010 7668,13993 7723,13993 7723,14010 7704,14010 7704,14108 7687,14108 "/>
   <path class="fil14" d="M7876 14109c-8,0 -14,-3 -20,-8 -5,-5 -8,-12 -8,-19l0 -89 17 0 0 89c0,3 1,5 3,7 2,2 4,3 7,3 3,0 5,-1 7,-3 2,-2 3,-4 3,-7l0 -89 18 0 0 89c0,8 -3,14 -8,19 -5,5 -12,8 -20,8z"/>
   <path class="fil14" d="M8084 14080c0,8 -3,14 -8,19 -5,5 -12,8 -20,8l-28 0 0 -115 28 0c8,0 14,3 20,8 5,5 8,12 8,19l0 60zm-38 10l0 0 11 0c3,0 5,-1 7,-3 2,-2 3,-4 3,-7l0 -60c0,-3 -1,-5 -3,-7 -2,-2 -4,-3 -7,-3l-11 0 0 80z"/>
   <polygon class="fil14" points="8227,14108 8209,14108 8209,13993 8227,13993 "/>
   <path class="fil14" d="M8380 13991c8,0 14,3 20,8 5,5 8,12 8,19l0 63c0,8 -3,14 -8,20 -5,5 -12,8 -20,8 -8,0 -14,-3 -20,-8 -5,-5 -8,-12 -8,-19l0 -63c0,-8 3,-14 8,-20 5,-5 12,-8 20,-8zm10 27l0 0c0,-3 -1,-5 -3,-7 -2,-2 -4,-3 -7,-3 -3,0 -5,1 -7,3 -2,2 -3,4 -3,7l0 63c0,3 1,5 3,7 2,2 4,3 7,3 3,0 5,-1 7,-3 2,-2 3,-4 3,-7l0 -63z"/>
   <path class="fil14" d="M8591 14079c0,8 -2,15 -6,21 -3,4 -7,7 -12,8 -3,1 -6,1 -10,1 -7,0 -13,-2 -17,-5 -4,-3 -7,-6 -9,-11 -2,-5 -3,-10 -4,-16l17 -1c1,7 3,12 5,15 2,2 5,3 7,3 4,0 7,-2 9,-6 1,-2 2,-4 2,-8 0,-5 -2,-10 -7,-14 -3,-3 -9,-8 -16,-15 -6,-6 -10,-11 -12,-15 -3,-5 -4,-10 -4,-16 0,-10 4,-18 11,-24 4,-3 10,-5 16,-5 6,0 12,1 16,4 3,2 6,5 8,9 2,4 3,8 4,13l-17 3c-1,-5 -2,-8 -4,-11 -2,-2 -4,-3 -7,-3 -3,0 -6,1 -7,4 -1,2 -2,5 -2,8 0,5 2,11 7,16 2,2 4,5 8,7 4,3 7,6 8,7 4,4 8,9 10,13 1,2 2,4 3,5 2,4 3,8 3,11z"/>
  </g>
  <path class="fil14" d="M8300 11996c0,0 -658,-158 -1002,196 0,0 147,-369 571,-377 0,0 229,-1 431,181z"/>
  <path class="fil14" d="M7658 12311c157,-180 326,-225 489,-285 -140,-9 -612,27 -798,300 -207,304 -21,615 102,730 -41,-232 5,-513 207,-745z"/>
  <path class="fil14" d="M8022 12177c0,0 -636,205 -410,994 0,0 317,282 750,142 0,0 -593,-102 -597,-591 0,0 -16,-310 256,-544z"/>
  <path class="fil14" d="M7929 12493c0,0 -188,359 141,576 0,0 159,130 487,128 0,0 238,-109 356,-522 0,0 -230,414 -707,261 -66,-21 -329,-150 -276,-443z"/>
  <path class="fil14" d="M8687 12073c-308,-414 -745,-317 -745,-317 378,49 531,285 555,340 -53,20 -93,71 -100,132 -430,193 -273,561 -273,561 -21,-60 36,-354 418,-412 334,-51 420,115 420,115 -19,-315 -282,-416 -275,-420z"/>
 </g>
</svg>
